<?xml version="1.0" encoding="UTF-8" standalone="no"?>
<!-- Created with Inkscape (http://www.inkscape.org/) -->

<svg
   width="343"
   height="600"
   viewBox="0 0 90.752279 158.75"
   version="1.1"
   id="svg5"
   sodipodi:docname="order.svg"
   inkscape:version="1.2 (1:1.2.1+202207142221+cd75a1ee6d)"
   inkscape:export-filename="order.png"
   inkscape:export-xdpi="96"
   inkscape:export-ydpi="96"
   xmlns:inkscape="http://www.inkscape.org/namespaces/inkscape"
   xmlns:sodipodi="http://sodipodi.sourceforge.net/DTD/sodipodi-0.dtd"
   xmlns="http://www.w3.org/2000/svg"
   xmlns:svg="http://www.w3.org/2000/svg">
  <sodipodi:namedview
     id="namedview7"
     pagecolor="#000000"
     bordercolor="#000000"
     borderopacity="0.25"
     inkscape:showpageshadow="2"
     inkscape:pageopacity="1"
     inkscape:pagecheckerboard="0"
     inkscape:deskcolor="#d1d1d1"
     inkscape:document-units="mm"
     showgrid="false"
     inkscape:zoom="1.5144501"
     inkscape:cx="175.31116"
     inkscape:cy="6.9332096"
     inkscape:window-width="1920"
     inkscape:window-height="1016"
     inkscape:window-x="0"
     inkscape:window-y="27"
     inkscape:window-maximized="1"
     inkscape:current-layer="layer1" />
  <defs
     id="defs2">
    <clipPath
       id="clipPath9543">
      <path
         d="m 9,3 h 11 v 8.667969 H 9 Z m 0,0"
         id="path6408" />
    </clipPath>
    <clipPath
       id="clipPath8906">
      <path
         d="m 44,3 h 10 v 8.667969 H 44 Z m 0,0"
         id="path7324" />
    </clipPath>
    <clipPath
       id="clipPath7193">
      <path
         d="m 81,3 h 3 v 8.667969 h -3 z m 0,0"
         id="path7827" />
    </clipPath>
    <clipPath
       id="clipPath9188">
      <path
         d="m 89,3 h 3 v 8.667969 h -3 z m 0,0"
         id="path4929" />
    </clipPath>
    <clipPath
       id="clipPath7288">
      <path
         d="M 15,5 H 31 V 20.179688 H 15 Z m 0,0"
         id="path7026" />
    </clipPath>
    <clipPath
       id="clipPath4052">
      <path
         d="M 70,5 H 86 V 20.179688 H 70 Z m 0,0"
         id="path2140" />
    </clipPath>
    <clipPath
       id="clipPath5797">
      <path
         d="m 148,5 h 5 v 15.179688 h -5 z m 0,0"
         id="path9061" />
    </clipPath>
    <clipPath
       id="clipPath8842">
      <path
         d="m 162,5 h 4 v 15.179688 h -4 z m 0,0"
         id="path7990" />
    </clipPath>
    <clipPath
       id="clipPath9358">
      <path
         d="M 34,6 H 51 V 21.3125 H 34 Z m 0,0"
         id="path6085" />
    </clipPath>
    <clipPath
       id="clipPath5165">
      <path
         d="m 114,6 h 16 v 15.3125 h -16 z m 0,0"
         id="path692" />
    </clipPath>
    <clipPath
       id="clipPath6528">
      <path
         d="m 219,6 h 4 v 15.3125 h -4 z m 0,0"
         id="path9406" />
    </clipPath>
    <clipPath
       id="clipPath5604">
      <path
         d="m 232,6 h 4 v 15.3125 h -4 z m 0,0"
         id="path8563" />
    </clipPath>
    <clipPath
       id="clipPath8743">
      <path
         d="M 34,6 H 51 V 21.3125 H 34 Z m 0,0"
         id="path9636" />
    </clipPath>
    <clipPath
       id="clipPath9482">
      <path
         d="m 114,6 h 16 v 15.3125 h -16 z m 0,0"
         id="path7166" />
    </clipPath>
    <clipPath
       id="clipPath2831">
      <path
         d="m 219,6 h 4 v 15.3125 h -4 z m 0,0"
         id="path358" />
    </clipPath>
    <clipPath
       id="clipPath361">
      <path
         d="m 232,6 h 4 v 15.3125 h -4 z m 0,0"
         id="path1609" />
    </clipPath>
    <clipPath
       id="clipPath9617">
      <path
         d="M 34,6 H 51 V 21.3125 H 34 Z m 0,0"
         id="path2614" />
    </clipPath>
    <clipPath
       id="clipPath437">
      <path
         d="m 114,6 h 16 v 15.3125 h -16 z m 0,0"
         id="path2566" />
    </clipPath>
    <clipPath
       id="clipPath7905">
      <path
         d="m 223,6 h 4 v 15.3125 h -4 z m 0,0"
         id="path1979" />
    </clipPath>
    <clipPath
       id="clipPath3448">
      <path
         d="m 236,6 h 5 v 15.3125 h -5 z m 0,0"
         id="path5691" />
    </clipPath>
    <clipPath
       id="clipPath7162">
      <path
         d="M 33,7 H 49 V 21.457031 H 33 Z m 0,0"
         id="path5455" />
    </clipPath>
    <clipPath
       id="clipPath3664">
      <path
         d="m 112,7 h 16 v 14.457031 h -16 z m 0,0"
         id="path1627" />
    </clipPath>
    <clipPath
       id="clipPath7771">
      <path
         d="m 221,7 h 5 v 14.457031 h -5 z m 0,0"
         id="path1233" />
    </clipPath>
    <clipPath
       id="clipPath1937">
      <path
         d="m 235,7 h 4 v 14.457031 h -4 z m 0,0"
         id="path1013" />
    </clipPath>
    <filter
       inkscape:collect="always"
       style="color-interpolation-filters:sRGB"
       id="filter1043"
       x="-0.011101641"
       y="-0.090759059"
       width="1.0222033"
       height="1.1563129">
      <feGaussianBlur
         inkscape:collect="always"
         stdDeviation="0.1955694"
         id="feGaussianBlur1045" />
    </filter>
    <filter
       inkscape:collect="always"
       style="color-interpolation-filters:sRGB"
       id="filter1047"
       x="-0.0071319077"
       y="-0.018525923"
       width="1.0142677"
       height="1.0370889">
      <feGaussianBlur
         inkscape:collect="always"
         stdDeviation="0.21251801"
         id="feGaussianBlur1049" />
    </filter>
  </defs>
  <g
     inkscape:label="Layer 1"
     inkscape:groupmode="layer"
     id="layer1">
    <g
       inkscape:label=""
       transform="matrix(0.52205326,0,0,0.52205326,63.935364,17.048671)"
       id="g6629"
       inkscape:transform-center-x="1.6449819"
       inkscape:transform-center-y="-4.7900734"
       style="stroke:#167581;stroke-opacity:0.92408299;filter:url(#filter1043)">
      <g
         id="g6627"
         transform="matrix(0.352778,0,0,0.352778,-18.605658,-27.319589)"
         style="stroke:#167581;stroke-opacity:0.92408299">
        <g
           style="fill:#000000;fill-opacity:1;stroke:#167581;stroke-opacity:0.92408299"
           id="g6529">
          <g
             id="g6527"
             transform="translate(0,11.764)"
             style="stroke:#167581;stroke-opacity:0.92408299">
            <path
               style="stroke:#167581;stroke-opacity:0.92408299"
               d="M 8.171875,-6.984375 6.5625,-10.765625 c 0.21875,-0.40625 0.734375,-0.484375 0.9375,-0.5 0.109375,0 0.296875,-0.01563 0.296875,-0.3125 0,-0.1875 -0.15625,-0.1875 -0.25,-0.1875 -0.296875,0 -0.640625,0.04687 -0.9375,0.04687 h -1 c -1.046875,0 -1.796875,-0.04687 -1.828125,-0.04687 -0.125,0 -0.296875,0 -0.296875,0.328125 0,0.171875 0.15625,0.171875 0.375,0.171875 1,0 1.0625,0.171875 1.234375,0.59375 l 2.046875,4.78125 -3.734375,4 C 2.796875,-1.21875 2.046875,-0.5625 0.78125,-0.5 0.5625,-0.484375 0.4375,-0.484375 0.4375,-0.171875 0.4375,-0.125 0.453125,0 0.640625,0 0.875,0 1.140625,-0.03125 1.375,-0.03125 H 2.1875 C 2.734375,-0.03125 3.34375,0 3.875,0 4,0 4.203125,0 4.203125,-0.3125 4.203125,-0.484375 4.078125,-0.5 3.984375,-0.5 3.640625,-0.53125 3.40625,-0.71875 3.40625,-1 c 0,-0.296875 0.203125,-0.5 0.703125,-1.015625 L 5.640625,-3.6875 C 6.03125,-4.078125 6.9375,-5.078125 7.3125,-5.453125 L 9.125,-1.21875 C 9.140625,-1.1875 9.21875,-1.015625 9.21875,-1 c 0,0.15625 -0.390625,0.46875 -0.9375,0.5 -0.109375,0 -0.296875,0.015625 -0.296875,0.328125 C 7.984375,0 8.15625,0 8.25,0 8.546875,0 8.890625,-0.03125 9.171875,-0.03125 h 1.90625 C 11.375,-0.03125 11.703125,0 12,0 12.125,0 12.3125,0 12.3125,-0.328125 12.3125,-0.5 12.140625,-0.5 11.984375,-0.5 10.953125,-0.515625 10.921875,-0.609375 10.625,-1.234375 l -2.28125,-5.34375 2.1875,-2.34375 c 0.171875,-0.171875 0.578125,-0.59375 0.734375,-0.765625 0.734375,-0.78125 1.421875,-1.484375 2.8125,-1.578125 0.171875,-0.01563 0.34375,-0.01563 0.34375,-0.3125 0,-0.1875 -0.140625,-0.1875 -0.21875,-0.1875 -0.234375,0 -0.5,0.04687 -0.734375,0.04687 h -0.796875 c -0.546875,0 -1.15625,-0.04687 -1.6875,-0.04687 -0.125,0 -0.328125,0 -0.328125,0.3125 0,0.171875 0.125,0.1875 0.21875,0.1875 0.28125,0.03125 0.578125,0.171875 0.578125,0.5 l -0.01563,0.03125 c -0.01563,0.125 -0.0625,0.296875 -0.25,0.5 z m 0,0"
               id="path6525" />
          </g>
        </g>
        <g
           clip-path="url(#clipPath7288)"
           clip-rule="nonzero"
           id="g6545"
           style="stroke:#167581;stroke-opacity:0.92408299">
          <g
             style="fill:#000000;fill-opacity:1;stroke:#167581;stroke-opacity:0.92408299"
             id="g6543">
            <g
               id="g6533"
               transform="translate(13.99,16.593)"
               style="stroke:#167581;stroke-opacity:0.92408299">
              <path
                 style="stroke:#167581;stroke-opacity:0.92408299"
                 d="m 4.65625,3.484375 c 0,-0.046875 0,-0.078125 -0.234375,-0.3125 -1.4375,-1.453125 -2.234375,-3.8125 -2.234375,-6.75 0,-2.78125 0.671875,-5.171875 2.328125,-6.859375 0.140625,-0.140625 0.140625,-0.15625 0.140625,-0.203125 0,-0.09375 -0.0625,-0.109375 -0.125,-0.109375 -0.1875,0 -1.359375,1.03125 -2.0625,2.4375 -0.734375,1.4375 -1.0625,2.984375 -1.0625,4.734375 0,1.28125 0.203125,2.984375 0.953125,4.53125 0.84375,1.71875 2.015625,2.640625 2.171875,2.640625 0.0625,0 0.125,-0.015625 0.125,-0.109375 z m 0,0"
                 id="path6531" />
            </g>
            <g
               id="g6537"
               transform="translate(19.453033,16.593)"
               style="stroke:#167581;stroke-opacity:0.92408299">
              <path
                 style="stroke:#167581;stroke-opacity:0.92408299"
                 d="m 4.125,-9.1875 c 0,-0.34375 0,-0.34375 -0.28125,-0.34375 C 3.5,-9.15625 2.78125,-8.625 1.3125,-8.625 v 0.421875 c 0.328125,0 1.046875,0 1.828125,-0.375 v 7.46875 c 0,0.515625 -0.046875,0.6875 -1.296875,0.6875 H 1.390625 V 0 c 0.390625,-0.03125 1.78125,-0.03125 2.25,-0.03125 0.46875,0 1.859375,0 2.234375,0.03125 V -0.421875 H 5.4375 c -1.265625,0 -1.3125,-0.171875 -1.3125,-0.6875 z m 0,0"
                 id="path6535" />
            </g>
            <g
               id="g6541"
               transform="translate(26.476933,16.593)"
               style="stroke:#167581;stroke-opacity:0.92408299">
              <path
                 style="stroke:#167581;stroke-opacity:0.92408299"
                 d="M 4.046875,-3.578125 C 4.046875,-4.65625 3.90625,-6.4375 3.09375,-8.109375 2.25,-9.828125 1.078125,-10.75 0.921875,-10.75 c -0.0625,0 -0.140625,0.01563 -0.140625,0.109375 0,0.04687 0,0.0625 0.25,0.3125 1.4375,1.453125 2.234375,3.8125 2.234375,6.75 0,2.78125 -0.671875,5.171875 -2.328125,6.859375 -0.15625,0.125 -0.15625,0.15625 -0.15625,0.203125 0,0.09375 0.078125,0.109375 0.140625,0.109375 0.1875,0 1.359375,-1.03125 2.0625,-2.4375 0.734375,-1.453125 1.0625,-3 1.0625,-4.734375 z m 0,0"
                 id="path6539" />
            </g>
          </g>
        </g>
        <g
           style="fill:#000000;fill-opacity:1;stroke:#167581;stroke-opacity:0.92408299"
           id="g6551">
          <g
             id="g6549"
             transform="translate(37.219002,11.764)"
             style="stroke:#167581;stroke-opacity:0.92408299">
            <path
               style="stroke:#167581;stroke-opacity:0.92408299"
               d="m 11.625,-10.234375 c 0.1875,-0.07813 0.328125,-0.171875 0.328125,-0.375 0,-0.1875 -0.140625,-0.34375 -0.34375,-0.34375 -0.09375,0 -0.25,0.07813 -0.3125,0.109375 L 1.78125,-6.359375 c -0.296875,0.140625 -0.359375,0.265625 -0.359375,0.40625 0,0.15625 0.109375,0.265625 0.359375,0.375 l 9.515625,4.46875 c 0.21875,0.125 0.25,0.125 0.3125,0.125 0.1875,0 0.34375,-0.15625 0.34375,-0.34375 0,-0.15625 -0.07813,-0.25 -0.359375,-0.390625 L 2.578125,-5.953125 Z m -0.28125,12.59375 c 0.296875,0 0.609375,0 0.609375,-0.34375 0,-0.34375 -0.359375,-0.34375 -0.625,-0.34375 h -9.28125 c -0.25,0 -0.625,0 -0.625,0.34375 0,0.34375 0.3125,0.34375 0.609375,0.34375 z m 0,0"
               id="path6547" />
          </g>
        </g>
        <g
           style="fill:#000000;fill-opacity:1;stroke:#167581;stroke-opacity:0.92408299"
           id="g6557">
          <g
             id="g6555"
             transform="translate(55.390999,11.764)"
             style="stroke:#167581;stroke-opacity:0.92408299">
            <path
               style="stroke:#167581;stroke-opacity:0.92408299"
               d="M 8.171875,-6.984375 6.5625,-10.765625 c 0.21875,-0.40625 0.734375,-0.484375 0.9375,-0.5 0.109375,0 0.296875,-0.01563 0.296875,-0.3125 0,-0.1875 -0.15625,-0.1875 -0.25,-0.1875 -0.296875,0 -0.640625,0.04687 -0.9375,0.04687 h -1 c -1.046875,0 -1.796875,-0.04687 -1.828125,-0.04687 -0.125,0 -0.296875,0 -0.296875,0.328125 0,0.171875 0.15625,0.171875 0.375,0.171875 1,0 1.0625,0.171875 1.234375,0.59375 l 2.046875,4.78125 -3.734375,4 C 2.796875,-1.21875 2.046875,-0.5625 0.78125,-0.5 0.5625,-0.484375 0.4375,-0.484375 0.4375,-0.171875 0.4375,-0.125 0.453125,0 0.640625,0 0.875,0 1.140625,-0.03125 1.375,-0.03125 H 2.1875 C 2.734375,-0.03125 3.34375,0 3.875,0 4,0 4.203125,0 4.203125,-0.3125 4.203125,-0.484375 4.078125,-0.5 3.984375,-0.5 3.640625,-0.53125 3.40625,-0.71875 3.40625,-1 c 0,-0.296875 0.203125,-0.5 0.703125,-1.015625 L 5.640625,-3.6875 C 6.03125,-4.078125 6.9375,-5.078125 7.3125,-5.453125 L 9.125,-1.21875 C 9.140625,-1.1875 9.21875,-1.015625 9.21875,-1 c 0,0.15625 -0.390625,0.46875 -0.9375,0.5 -0.109375,0 -0.296875,0.015625 -0.296875,0.328125 C 7.984375,0 8.15625,0 8.25,0 8.546875,0 8.890625,-0.03125 9.171875,-0.03125 h 1.90625 C 11.375,-0.03125 11.703125,0 12,0 12.125,0 12.3125,0 12.3125,-0.328125 12.3125,-0.5 12.140625,-0.5 11.984375,-0.5 10.953125,-0.515625 10.921875,-0.609375 10.625,-1.234375 l -2.28125,-5.34375 2.1875,-2.34375 c 0.171875,-0.171875 0.578125,-0.59375 0.734375,-0.765625 0.734375,-0.78125 1.421875,-1.484375 2.8125,-1.578125 0.171875,-0.01563 0.34375,-0.01563 0.34375,-0.3125 0,-0.1875 -0.140625,-0.1875 -0.21875,-0.1875 -0.234375,0 -0.5,0.04687 -0.734375,0.04687 h -0.796875 c -0.546875,0 -1.15625,-0.04687 -1.6875,-0.04687 -0.125,0 -0.328125,0 -0.328125,0.3125 0,0.171875 0.125,0.1875 0.21875,0.1875 0.28125,0.03125 0.578125,0.171875 0.578125,0.5 l -0.01563,0.03125 c -0.01563,0.125 -0.0625,0.296875 -0.25,0.5 z m 0,0"
               id="path6553" />
          </g>
        </g>
        <g
           clip-path="url(#clipPath4052)"
           clip-rule="nonzero"
           id="g6573"
           style="stroke:#167581;stroke-opacity:0.92408299">
          <g
             style="fill:#000000;fill-opacity:1;stroke:#167581;stroke-opacity:0.92408299"
             id="g6571">
            <g
               id="g6561"
               transform="translate(69.380997,16.593)"
               style="stroke:#167581;stroke-opacity:0.92408299">
              <path
                 style="stroke:#167581;stroke-opacity:0.92408299"
                 d="m 4.65625,3.484375 c 0,-0.046875 0,-0.078125 -0.234375,-0.3125 -1.4375,-1.453125 -2.234375,-3.8125 -2.234375,-6.75 0,-2.78125 0.671875,-5.171875 2.328125,-6.859375 0.140625,-0.140625 0.140625,-0.15625 0.140625,-0.203125 0,-0.09375 -0.0625,-0.109375 -0.125,-0.109375 -0.1875,0 -1.359375,1.03125 -2.0625,2.4375 -0.734375,1.4375 -1.0625,2.984375 -1.0625,4.734375 0,1.28125 0.203125,2.984375 0.953125,4.53125 0.84375,1.71875 2.015625,2.640625 2.171875,2.640625 0.0625,0 0.125,-0.015625 0.125,-0.109375 z m 0,0"
                 id="path6559" />
            </g>
            <g
               id="g6565"
               transform="translate(74.844032,16.593)"
               style="stroke:#167581;stroke-opacity:0.92408299">
              <path
                 style="stroke:#167581;stroke-opacity:0.92408299"
                 d="M 6.3125,-2.40625 H 6 c -0.046875,0.234375 -0.15625,1.03125 -0.3125,1.265625 -0.09375,0.125 -0.90625,0.125 -1.34375,0.125 H 1.6875 c 0.390625,-0.328125 1.265625,-1.25 1.640625,-1.59375 2.1875,-2.015625 2.984375,-2.75 2.984375,-4.171875 0,-1.65625 -1.3125,-2.75 -2.96875,-2.75 -1.671875,0 -2.640625,1.40625 -2.640625,2.640625 0,0.734375 0.625,0.734375 0.671875,0.734375 0.296875,0 0.671875,-0.21875 0.671875,-0.671875 C 2.046875,-7.234375 1.78125,-7.5 1.375,-7.5 1.25,-7.5 1.21875,-7.5 1.171875,-7.484375 1.453125,-8.46875 2.21875,-9.125 3.15625,-9.125 4.375,-9.125 5.125,-8.109375 5.125,-6.78125 5.125,-5.5625 4.421875,-4.5 3.59375,-3.578125 L 0.703125,-0.34375 V 0 H 5.9375 Z m 0,0"
                 id="path6563" />
            </g>
            <g
               id="g6569"
               transform="translate(81.867935,16.593)"
               style="stroke:#167581;stroke-opacity:0.92408299">
              <path
                 style="stroke:#167581;stroke-opacity:0.92408299"
                 d="M 4.046875,-3.578125 C 4.046875,-4.65625 3.90625,-6.4375 3.09375,-8.109375 2.25,-9.828125 1.078125,-10.75 0.921875,-10.75 c -0.0625,0 -0.140625,0.01563 -0.140625,0.109375 0,0.04687 0,0.0625 0.25,0.3125 1.4375,1.453125 2.234375,3.8125 2.234375,6.75 0,2.78125 -0.671875,5.171875 -2.328125,6.859375 -0.15625,0.125 -0.15625,0.15625 -0.15625,0.203125 0,0.09375 0.078125,0.109375 0.140625,0.109375 0.1875,0 1.359375,-1.03125 2.0625,-2.4375 0.734375,-1.453125 1.0625,-3 1.0625,-4.734375 z m 0,0"
                 id="path6567" />
            </g>
          </g>
        </g>
        <g
           style="fill:#000000;fill-opacity:1;stroke:#167581;stroke-opacity:0.92408299"
           id="g6579">
          <g
             id="g6577"
             transform="translate(90.696999,11.764)"
             style="stroke:#167581;stroke-opacity:0.92408299">
            <path
               style="stroke:#167581;stroke-opacity:0.92408299"
               d="m 3.171875,-0.828125 c 0,-0.5 -0.421875,-0.84375 -0.828125,-0.84375 C 1.84375,-1.671875 1.5,-1.25 1.5,-0.84375 1.5,-0.34375 1.90625,0 2.328125,0 c 0.5,0 0.84375,-0.40625 0.84375,-0.828125 z m 0,0"
               id="path6575" />
          </g>
        </g>
        <g
           style="fill:#000000;fill-opacity:1;stroke:#167581;stroke-opacity:0.92408299"
           id="g6585">
          <g
             id="g6583"
             transform="translate(98.254562,11.764)"
             style="stroke:#167581;stroke-opacity:0.92408299">
            <path
               style="stroke:#167581;stroke-opacity:0.92408299"
               d="m 3.171875,-0.828125 c 0,-0.5 -0.421875,-0.84375 -0.828125,-0.84375 C 1.84375,-1.671875 1.5,-1.25 1.5,-0.84375 1.5,-0.34375 1.90625,0 2.328125,0 c 0.5,0 0.84375,-0.40625 0.84375,-0.828125 z m 0,0"
               id="path6581" />
          </g>
        </g>
        <g
           style="fill:#000000;fill-opacity:1;stroke:#167581;stroke-opacity:0.92408299"
           id="g6591">
          <g
             id="g6589"
             transform="translate(105.79491,11.764)"
             style="stroke:#167581;stroke-opacity:0.92408299">
            <path
               style="stroke:#167581;stroke-opacity:0.92408299"
               d="m 3.171875,-0.828125 c 0,-0.5 -0.421875,-0.84375 -0.828125,-0.84375 C 1.84375,-1.671875 1.5,-1.25 1.5,-0.84375 1.5,-0.34375 1.90625,0 2.328125,0 c 0.5,0 0.84375,-0.40625 0.84375,-0.828125 z m 0,0"
               id="path6587" />
          </g>
        </g>
        <g
           style="fill:#000000;fill-opacity:1;stroke:#167581;stroke-opacity:0.92408299"
           id="g6597">
          <g
             id="g6595"
             transform="translate(115.265,11.764)"
             style="stroke:#167581;stroke-opacity:0.92408299">
            <path
               style="stroke:#167581;stroke-opacity:0.92408299"
               d="m 11.625,-10.234375 c 0.1875,-0.07813 0.328125,-0.171875 0.328125,-0.375 0,-0.1875 -0.140625,-0.34375 -0.34375,-0.34375 -0.09375,0 -0.25,0.07813 -0.3125,0.109375 L 1.78125,-6.359375 c -0.296875,0.140625 -0.359375,0.265625 -0.359375,0.40625 0,0.15625 0.109375,0.265625 0.359375,0.375 l 9.515625,4.46875 c 0.21875,0.125 0.25,0.125 0.3125,0.125 0.1875,0 0.34375,-0.15625 0.34375,-0.34375 0,-0.15625 -0.07813,-0.25 -0.359375,-0.390625 L 2.578125,-5.953125 Z m -0.28125,12.59375 c 0.296875,0 0.609375,0 0.609375,-0.34375 0,-0.34375 -0.359375,-0.34375 -0.625,-0.34375 h -9.28125 c -0.25,0 -0.625,0 -0.625,0.34375 0,0.34375 0.3125,0.34375 0.609375,0.34375 z m 0,0"
               id="path6593" />
          </g>
        </g>
        <g
           style="fill:#000000;fill-opacity:1;stroke:#167581;stroke-opacity:0.92408299"
           id="g6603">
          <g
             id="g6601"
             transform="translate(133.437,11.764)"
             style="stroke:#167581;stroke-opacity:0.92408299">
            <path
               style="stroke:#167581;stroke-opacity:0.92408299"
               d="M 8.171875,-6.984375 6.5625,-10.765625 c 0.21875,-0.40625 0.734375,-0.484375 0.9375,-0.5 0.109375,0 0.296875,-0.01563 0.296875,-0.3125 0,-0.1875 -0.15625,-0.1875 -0.25,-0.1875 -0.296875,0 -0.640625,0.04687 -0.9375,0.04687 h -1 c -1.046875,0 -1.796875,-0.04687 -1.828125,-0.04687 -0.125,0 -0.296875,0 -0.296875,0.328125 0,0.171875 0.15625,0.171875 0.375,0.171875 1,0 1.0625,0.171875 1.234375,0.59375 l 2.046875,4.78125 -3.734375,4 C 2.796875,-1.21875 2.046875,-0.5625 0.78125,-0.5 0.5625,-0.484375 0.4375,-0.484375 0.4375,-0.171875 0.4375,-0.125 0.453125,0 0.640625,0 0.875,0 1.140625,-0.03125 1.375,-0.03125 H 2.1875 C 2.734375,-0.03125 3.34375,0 3.875,0 4,0 4.203125,0 4.203125,-0.3125 4.203125,-0.484375 4.078125,-0.5 3.984375,-0.5 3.640625,-0.53125 3.40625,-0.71875 3.40625,-1 c 0,-0.296875 0.203125,-0.5 0.703125,-1.015625 L 5.640625,-3.6875 C 6.03125,-4.078125 6.9375,-5.078125 7.3125,-5.453125 L 9.125,-1.21875 C 9.140625,-1.1875 9.21875,-1.015625 9.21875,-1 c 0,0.15625 -0.390625,0.46875 -0.9375,0.5 -0.109375,0 -0.296875,0.015625 -0.296875,0.328125 C 7.984375,0 8.15625,0 8.25,0 8.546875,0 8.890625,-0.03125 9.171875,-0.03125 h 1.90625 C 11.375,-0.03125 11.703125,0 12,0 12.125,0 12.3125,0 12.3125,-0.328125 12.3125,-0.5 12.140625,-0.5 11.984375,-0.5 10.953125,-0.515625 10.921875,-0.609375 10.625,-1.234375 l -2.28125,-5.34375 2.1875,-2.34375 c 0.171875,-0.171875 0.578125,-0.59375 0.734375,-0.765625 0.734375,-0.78125 1.421875,-1.484375 2.8125,-1.578125 0.171875,-0.01563 0.34375,-0.01563 0.34375,-0.3125 0,-0.1875 -0.140625,-0.1875 -0.21875,-0.1875 -0.234375,0 -0.5,0.04687 -0.734375,0.04687 h -0.796875 c -0.546875,0 -1.15625,-0.04687 -1.6875,-0.04687 -0.125,0 -0.328125,0 -0.328125,0.3125 0,0.171875 0.125,0.1875 0.21875,0.1875 0.28125,0.03125 0.578125,0.171875 0.578125,0.5 l -0.01563,0.03125 c -0.01563,0.125 -0.0625,0.296875 -0.25,0.5 z m 0,0"
               id="path6599" />
          </g>
        </g>
        <g
           clip-path="url(#clipPath5797)"
           clip-rule="nonzero"
           id="g6611"
           style="stroke:#167581;stroke-opacity:0.92408299">
          <g
             style="fill:#000000;fill-opacity:1;stroke:#167581;stroke-opacity:0.92408299"
             id="g6609">
            <g
               id="g6607"
               transform="translate(147.427,16.593)"
               style="stroke:#167581;stroke-opacity:0.92408299">
              <path
                 style="stroke:#167581;stroke-opacity:0.92408299"
                 d="m 4.65625,3.484375 c 0,-0.046875 0,-0.078125 -0.234375,-0.3125 -1.4375,-1.453125 -2.234375,-3.8125 -2.234375,-6.75 0,-2.78125 0.671875,-5.171875 2.328125,-6.859375 0.140625,-0.140625 0.140625,-0.15625 0.140625,-0.203125 0,-0.09375 -0.0625,-0.109375 -0.125,-0.109375 -0.1875,0 -1.359375,1.03125 -2.0625,2.4375 -0.734375,1.4375 -1.0625,2.984375 -1.0625,4.734375 0,1.28125 0.203125,2.984375 0.953125,4.53125 0.84375,1.71875 2.015625,2.640625 2.171875,2.640625 0.0625,0 0.125,-0.015625 0.125,-0.109375 z m 0,0"
                 id="path6605" />
            </g>
          </g>
        </g>
        <g
           style="fill:#000000;fill-opacity:1;stroke:#167581;stroke-opacity:0.92408299"
           id="g6617">
          <g
             id="g6615"
             transform="translate(152.89,16.593)"
             style="stroke:#167581;stroke-opacity:0.92408299">
            <path
               style="stroke:#167581;stroke-opacity:0.92408299"
               d="M 2.953125,-4.203125 C 2.984375,-4.28125 3.34375,-5 3.875,-5.46875 c 0.375,-0.34375 0.859375,-0.5625 1.421875,-0.5625 0.5625,0 0.765625,0.421875 0.765625,1 0,0.8125 -0.578125,2.453125 -0.875,3.21875 -0.125,0.34375 -0.203125,0.53125 -0.203125,0.796875 0,0.640625 0.453125,1.15625 1.140625,1.15625 1.328125,0 1.828125,-2.109375 1.828125,-2.1875 C 7.953125,-2.125 7.90625,-2.1875 7.8125,-2.1875 c -0.125,0 -0.140625,0.046875 -0.203125,0.296875 -0.34375,1.171875 -0.875,1.75 -1.4375,1.75 -0.140625,0 -0.375,-0.015625 -0.375,-0.46875 0,-0.359375 0.15625,-0.796875 0.234375,-1 C 6.328125,-2.390625 6.921875,-4 6.921875,-4.8125 c 0,-0.875 -0.5,-1.515625 -1.59375,-1.515625 -1.265625,0 -1.9375,0.90625 -2.203125,1.265625 C 3.078125,-5.875 2.5,-6.328125 1.859375,-6.328125 c -0.453125,0 -0.765625,0.28125 -1.015625,0.765625 -0.25,0.515625 -0.453125,1.375 -0.453125,1.4375 0,0.046875 0.046875,0.125 0.15625,0.125 0.109375,0 0.125,-0.015625 0.21875,-0.34375 0.21875,-0.875 0.484375,-1.6875 1.0625,-1.6875 0.328125,0 0.4375,0.21875 0.4375,0.65625 0,0.3125 -0.140625,0.875 -0.25,1.3125 L 1.625,-2.515625 c -0.0625,0.28125 -0.21875,0.921875 -0.296875,1.1875 -0.09375,0.359375 -0.25,1.046875 -0.25,1.109375 0,0.203125 0.15625,0.359375 0.375,0.359375 0.171875,0 0.375,-0.078125 0.484375,-0.296875 0.03125,-0.078125 0.15625,-0.578125 0.234375,-0.859375 l 0.3125,-1.296875 z m 0,0"
               id="path6613" />
          </g>
        </g>
        <g
           clip-path="url(#clipPath8842)"
           clip-rule="nonzero"
           id="g6625"
           style="stroke:#167581;stroke-opacity:0.92408299">
          <g
             style="fill:#000000;fill-opacity:1;stroke:#167581;stroke-opacity:0.92408299"
             id="g6623">
            <g
               id="g6621"
               transform="translate(161.27499,16.593)"
               style="stroke:#167581;stroke-opacity:0.92408299">
              <path
                 style="stroke:#167581;stroke-opacity:0.92408299"
                 d="M 4.046875,-3.578125 C 4.046875,-4.65625 3.90625,-6.4375 3.09375,-8.109375 2.25,-9.828125 1.078125,-10.75 0.921875,-10.75 c -0.0625,0 -0.140625,0.01563 -0.140625,0.109375 0,0.04687 0,0.0625 0.25,0.3125 1.4375,1.453125 2.234375,3.8125 2.234375,6.75 0,2.78125 -0.671875,5.171875 -2.328125,6.859375 -0.15625,0.125 -0.15625,0.15625 -0.15625,0.203125 0,0.09375 0.078125,0.109375 0.140625,0.109375 0.1875,0 1.359375,-1.03125 2.0625,-2.4375 0.734375,-1.453125 1.0625,-3 1.0625,-4.734375 z m 0,0"
                 id="path6619" />
            </g>
          </g>
        </g>
      </g>
    </g>
    <g
       inkscape:label=""
       transform="matrix(0.45614033,-0.15079197,0.15079197,0.45614033,5.4293904,15.571498)"
       id="g14018"
       style="stroke:#167581;stroke-opacity:0.92408299;filter:url(#filter1047)">
      <g
         id="g14016"
         transform="matrix(0.33480908,0.11115392,-0.11115392,0.33480908,7.0418119,-10.061648)"
         style="stroke:#167581;stroke-opacity:0.92408299">
        <g
           style="fill:#000000;fill-opacity:1;stroke:#167581;stroke-opacity:0.92408299"
           id="g77">
          <g
             id="use75"
             transform="translate(0,13.04)"
             style="stroke:#167581;stroke-opacity:0.92408299">
            <path
               style="stroke:#167581;stroke-opacity:0.92408299"
               d="m 4.953125,-5.828125 c 0.078125,0 0.484375,0 0.515625,0.015625 h 0.640625 c 3.84375,0 5.21875,-1.796875 5.21875,-3.59375 0,-2.6875 -2.421875,-3.5625 -4.859375,-3.5625 H 0.953125 c -0.34375,0 -0.65625,0 -0.65625,0.34375 0,0.328125 0.359375,0.328125 0.515625,0.328125 0.984375,0 1.0625,0.15625 1.0625,1.078125 v 9.484375 c 0,0.921875 -0.078125,1.078125 -1.046875,1.078125 -0.1875,0 -0.53125,0 -0.53125,0.3125 C 0.296875,0 0.609375,0 0.953125,0 h 5.0625 c 0.34375,0 0.625,0 0.625,-0.34375 0,-0.3125 -0.328125,-0.3125 -0.53125,-0.3125 -1.078125,0 -1.15625,-0.15625 -1.15625,-1.078125 z m 3.125,-0.84375 c 0.609375,-0.796875 0.65625,-2 0.65625,-2.75 0,-1 -0.09375,-2 -0.578125,-2.703125 1.046875,0.234375 2.515625,0.8125 2.515625,2.71875 0,1.328125 -0.84375,2.296875 -2.59375,2.734375 z m -3.125,-4.609375 c 0,-0.375 0,-1.015625 1.140625,-1.015625 1.359375,0 1.984375,0.515625 1.984375,2.875 0,2.703125 -1,2.9375 -2.171875,2.9375 H 4.953125 Z m -2.5625,10.625 C 2.53125,-1 2.53125,-1.453125 2.53125,-1.703125 v -9.5625 c 0,-0.234375 0,-0.6875 -0.140625,-1.03125 h 2.15625 c -0.25,0.296875 -0.25,0.671875 -0.25,0.96875 v 9.625 c 0,0.1875 0,0.703125 0.15625,1.046875 z m 0,0"
               id="path200" />
          </g>
        </g>
        <g
           style="fill:#000000;fill-opacity:1;stroke:#167581;stroke-opacity:0.92408299"
           id="g81">
          <g
             id="use79"
             transform="translate(11.568,13.04)"
             style="stroke:#167581;stroke-opacity:0.92408299">
            <path
               style="stroke:#167581;stroke-opacity:0.92408299"
               d="m 5.265625,4.203125 c 0,-0.015625 0,-0.046875 -0.046875,-0.109375 -0.796875,-0.8125 -2.90625,-3.015625 -2.90625,-8.375 0,-5.375 2.078125,-7.5625 2.921875,-8.421875 0,-0.01563 0.03125,-0.0625 0.03125,-0.109375 0,-0.04687 -0.046875,-0.07813 -0.125,-0.07813 -0.1875,0 -1.640625,1.265625 -2.484375,3.15625 -0.859375,1.921875 -1.109375,3.78125 -1.109375,5.421875 0,1.25 0.125,3.34375 1.15625,5.5625 0.828125,1.796875 2.234375,3.0625 2.4375,3.0625 0.09375,0 0.125,-0.046875 0.125,-0.109375 z m 0,0"
               id="path204" />
          </g>
        </g>
        <g
           style="fill:#000000;fill-opacity:1;stroke:#167581;stroke-opacity:0.92408299"
           id="g85">
          <g
             id="use83"
             transform="translate(17.664,13.04)"
             style="stroke:#167581;stroke-opacity:0.92408299">
            <path
               style="stroke:#167581;stroke-opacity:0.92408299"
               d="M 8.171875,-6.984375 6.5625,-10.765625 c 0.21875,-0.40625 0.734375,-0.484375 0.9375,-0.5 0.109375,0 0.296875,-0.01563 0.296875,-0.3125 0,-0.1875 -0.15625,-0.1875 -0.25,-0.1875 -0.296875,0 -0.640625,0.04687 -0.9375,0.04687 h -1 c -1.046875,0 -1.796875,-0.04687 -1.828125,-0.04687 -0.125,0 -0.296875,0 -0.296875,0.328125 0,0.171875 0.15625,0.171875 0.375,0.171875 1,0 1.0625,0.171875 1.234375,0.59375 l 2.046875,4.78125 -3.734375,4 C 2.796875,-1.21875 2.046875,-0.5625 0.78125,-0.5 0.5625,-0.484375 0.4375,-0.484375 0.4375,-0.171875 0.4375,-0.125 0.453125,0 0.640625,0 0.875,0 1.140625,-0.03125 1.375,-0.03125 H 2.1875 C 2.734375,-0.03125 3.34375,0 3.875,0 4,0 4.203125,0 4.203125,-0.3125 4.203125,-0.484375 4.078125,-0.5 3.984375,-0.5 3.640625,-0.53125 3.40625,-0.71875 3.40625,-1 c 0,-0.296875 0.203125,-0.5 0.703125,-1.015625 L 5.640625,-3.6875 C 6.03125,-4.078125 6.9375,-5.078125 7.3125,-5.453125 L 9.125,-1.21875 C 9.140625,-1.1875 9.21875,-1.015625 9.21875,-1 c 0,0.15625 -0.390625,0.46875 -0.9375,0.5 -0.109375,0 -0.296875,0.015625 -0.296875,0.328125 C 7.984375,0 8.15625,0 8.25,0 8.546875,0 8.890625,-0.03125 9.171875,-0.03125 h 1.90625 C 11.375,-0.03125 11.703125,0 12,0 12.125,0 12.3125,0 12.3125,-0.328125 12.3125,-0.5 12.140625,-0.5 11.984375,-0.5 10.953125,-0.515625 10.921875,-0.609375 10.625,-1.234375 l -2.28125,-5.34375 2.1875,-2.34375 c 0.171875,-0.171875 0.578125,-0.59375 0.734375,-0.765625 0.734375,-0.78125 1.421875,-1.484375 2.8125,-1.578125 0.171875,-0.01563 0.34375,-0.01563 0.34375,-0.3125 0,-0.1875 -0.140625,-0.1875 -0.21875,-0.1875 -0.234375,0 -0.5,0.04687 -0.734375,0.04687 h -0.796875 c -0.546875,0 -1.15625,-0.04687 -1.6875,-0.04687 -0.125,0 -0.328125,0 -0.328125,0.3125 0,0.171875 0.125,0.1875 0.21875,0.1875 0.28125,0.03125 0.578125,0.171875 0.578125,0.5 l -0.01563,0.03125 c -0.01563,0.125 -0.0625,0.296875 -0.25,0.5 z m 0,0"
               id="path208" />
          </g>
        </g>
        <g
           clip-path="url(#clipPath7162)"
           clip-rule="nonzero"
           id="g95"
           style="stroke:#167581;stroke-opacity:0.92408299">
          <g
             style="fill:#000000;fill-opacity:1;stroke:#167581;stroke-opacity:0.92408299"
             id="g93">
            <g
               id="use87"
               transform="translate(31.653999,17.868999)"
               style="stroke:#167581;stroke-opacity:0.92408299">
              <path
                 style="stroke:#167581;stroke-opacity:0.92408299"
                 d="m 4.65625,3.484375 c 0,-0.046875 0,-0.078125 -0.234375,-0.3125 -1.4375,-1.453125 -2.234375,-3.8125 -2.234375,-6.75 0,-2.78125 0.671875,-5.171875 2.328125,-6.859375 0.140625,-0.140625 0.140625,-0.15625 0.140625,-0.203125 0,-0.09375 -0.0625,-0.109375 -0.125,-0.109375 -0.1875,0 -1.359375,1.03125 -2.0625,2.4375 -0.734375,1.4375 -1.0625,2.984375 -1.0625,4.734375 0,1.28125 0.203125,2.984375 0.953125,4.53125 0.84375,1.71875 2.015625,2.640625 2.171875,2.640625 0.0625,0 0.125,-0.015625 0.125,-0.109375 z m 0,0"
                 id="path212" />
            </g>
            <g
               id="use89"
               transform="translate(37.117031,17.868999)"
               style="stroke:#167581;stroke-opacity:0.92408299">
              <path
                 style="stroke:#167581;stroke-opacity:0.92408299"
                 d="m 4.125,-9.1875 c 0,-0.34375 0,-0.34375 -0.28125,-0.34375 C 3.5,-9.15625 2.78125,-8.625 1.3125,-8.625 v 0.421875 c 0.328125,0 1.046875,0 1.828125,-0.375 v 7.46875 c 0,0.515625 -0.046875,0.6875 -1.296875,0.6875 H 1.390625 V 0 c 0.390625,-0.03125 1.78125,-0.03125 2.25,-0.03125 0.46875,0 1.859375,0 2.234375,0.03125 V -0.421875 H 5.4375 c -1.265625,0 -1.3125,-0.171875 -1.3125,-0.6875 z m 0,0"
                 id="path216" />
            </g>
            <g
               id="use91"
               transform="translate(44.14093,17.868999)"
               style="stroke:#167581;stroke-opacity:0.92408299">
              <path
                 style="stroke:#167581;stroke-opacity:0.92408299"
                 d="M 4.046875,-3.578125 C 4.046875,-4.65625 3.90625,-6.4375 3.09375,-8.109375 2.25,-9.828125 1.078125,-10.75 0.921875,-10.75 c -0.0625,0 -0.140625,0.01563 -0.140625,0.109375 0,0.04687 0,0.0625 0.25,0.3125 1.4375,1.453125 2.234375,3.8125 2.234375,6.75 0,2.78125 -0.671875,5.171875 -2.328125,6.859375 -0.15625,0.125 -0.15625,0.15625 -0.15625,0.203125 0,0.09375 0.078125,0.109375 0.140625,0.109375 0.1875,0 1.359375,-1.03125 2.0625,-2.4375 0.734375,-1.453125 1.0625,-3 1.0625,-4.734375 z m 0,0"
                 id="path220" />
            </g>
          </g>
        </g>
        <g
           style="fill:#000000;fill-opacity:1;stroke:#167581;stroke-opacity:0.92408299"
           id="g99">
          <g
             id="use97"
             transform="translate(54.882999,13.04)"
             style="stroke:#167581;stroke-opacity:0.92408299">
            <path
               style="stroke:#167581;stroke-opacity:0.92408299"
               d="m 11.625,-10.234375 c 0.1875,-0.07813 0.328125,-0.171875 0.328125,-0.375 0,-0.1875 -0.140625,-0.34375 -0.34375,-0.34375 -0.09375,0 -0.25,0.07813 -0.3125,0.109375 L 1.78125,-6.359375 c -0.296875,0.140625 -0.359375,0.265625 -0.359375,0.40625 0,0.15625 0.109375,0.265625 0.359375,0.375 l 9.515625,4.46875 c 0.21875,0.125 0.25,0.125 0.3125,0.125 0.1875,0 0.34375,-0.15625 0.34375,-0.34375 0,-0.15625 -0.07813,-0.25 -0.359375,-0.390625 L 2.578125,-5.953125 Z m -0.28125,12.59375 c 0.296875,0 0.609375,0 0.609375,-0.34375 0,-0.34375 -0.359375,-0.34375 -0.625,-0.34375 h -9.28125 c -0.25,0 -0.625,0 -0.625,0.34375 0,0.34375 0.3125,0.34375 0.609375,0.34375 z m 0,0"
               id="path224" />
          </g>
        </g>
        <g
           style="fill:#000000;fill-opacity:1;stroke:#167581;stroke-opacity:0.92408299"
           id="g103">
          <g
             id="use101"
             transform="translate(73.055,13.04)"
             style="stroke:#167581;stroke-opacity:0.92408299">
            <path
               style="stroke:#167581;stroke-opacity:0.92408299"
               d="M 5.1875,-2.046875 C 5.09375,-1.75 5.09375,-1.71875 4.859375,-1.390625 c -0.375,0.484375 -1.140625,1.21875 -1.953125,1.21875 -0.703125,0 -1.09375,-0.640625 -1.09375,-1.65625 0,-0.9375 0.53125,-2.875 0.859375,-3.59375 C 3.25,-6.625 4.0625,-7.25 4.734375,-7.25 c 1.140625,0 1.359375,1.40625 1.359375,1.546875 0,0.015625 -0.046875,0.25 -0.0625,0.28125 z m 1.09375,-4.40625 C 6.09375,-6.90625 5.625,-7.59375 4.734375,-7.59375 c -1.9375,0 -4.046875,2.515625 -4.046875,5.0625 0,1.703125 1,2.703125 2.171875,2.703125 0.953125,0 1.75,-0.734375 2.234375,-1.3125 0.171875,1.015625 0.984375,1.3125 1.5,1.3125 0.515625,0 0.9375,-0.3125 1.234375,-0.921875 C 8.109375,-1.34375 8.34375,-2.390625 8.34375,-2.46875 8.34375,-2.546875 8.28125,-2.625 8.171875,-2.625 8.03125,-2.625 8,-2.53125 7.9375,-2.265625 7.671875,-1.25 7.359375,-0.171875 6.640625,-0.171875 c -0.5,0 -0.53125,-0.453125 -0.53125,-0.796875 0,-0.390625 0.0625,-0.578125 0.203125,-1.25 0.125,-0.4375 0.21875,-0.8125 0.34375,-1.3125 0.640625,-2.578125 0.796875,-3.203125 0.796875,-3.296875 0,-0.25 -0.1875,-0.4375 -0.4375,-0.4375 -0.5625,0 -0.703125,0.609375 -0.734375,0.8125 z m 0,0"
               id="path228" />
          </g>
        </g>
        <g
           style="fill:#000000;fill-opacity:1;stroke:#167581;stroke-opacity:0.92408299"
           id="g107">
          <g
             id="use105"
             transform="translate(81.903999,16.355)"
             style="stroke:#167581;stroke-opacity:0.92408299">
            <path
               style="stroke:#167581;stroke-opacity:0.92408299"
               d="m 4.125,-9.1875 c 0,-0.34375 0,-0.34375 -0.28125,-0.34375 C 3.5,-9.15625 2.78125,-8.625 1.3125,-8.625 v 0.421875 c 0.328125,0 1.046875,0 1.828125,-0.375 v 7.46875 c 0,0.515625 -0.046875,0.6875 -1.296875,0.6875 H 1.390625 V 0 c 0.390625,-0.03125 1.78125,-0.03125 2.25,-0.03125 0.46875,0 1.859375,0 2.234375,0.03125 V -0.421875 H 5.4375 c -1.265625,0 -1.3125,-0.171875 -1.3125,-0.6875 z m 0,0"
               id="path232" />
          </g>
        </g>
        <g
           style="fill:#000000;fill-opacity:1;stroke:#167581;stroke-opacity:0.92408299"
           id="g111">
          <g
             id="use109"
             transform="translate(89.426003,13.04)"
             style="stroke:#167581;stroke-opacity:0.92408299">
            <path
               style="stroke:#167581;stroke-opacity:0.92408299"
               d="m 3.359375,0.0625 c 0,-1 -0.328125,-1.734375 -1.03125,-1.734375 C 1.78125,-1.671875 1.5,-1.21875 1.5,-0.84375 1.5,-0.46875 1.75,0 2.34375,0 2.5625,0 2.75,-0.0625 2.90625,-0.21875 c 0.03125,-0.046875 0.0625,-0.046875 0.078125,-0.046875 0.03125,0 0.03125,0.25 0.03125,0.328125 0,0.578125 -0.109375,1.6875 -1.109375,2.8125 -0.1875,0.203125 -0.1875,0.234375 -0.1875,0.28125 0,0.078125 0.09375,0.171875 0.171875,0.171875 0.140625,0 1.46875,-1.28125 1.46875,-3.265625 z m 0,0"
               id="path236" />
          </g>
        </g>
        <g
           style="fill:#000000;fill-opacity:1;stroke:#167581;stroke-opacity:0.92408299"
           id="g115">
          <g
             id="use113"
             transform="translate(96.983559,13.04)"
             style="stroke:#167581;stroke-opacity:0.92408299">
            <path
               style="stroke:#167581;stroke-opacity:0.92408299"
               d="M 8.171875,-6.984375 6.5625,-10.765625 c 0.21875,-0.40625 0.734375,-0.484375 0.9375,-0.5 0.109375,0 0.296875,-0.01563 0.296875,-0.3125 0,-0.1875 -0.15625,-0.1875 -0.25,-0.1875 -0.296875,0 -0.640625,0.04687 -0.9375,0.04687 h -1 c -1.046875,0 -1.796875,-0.04687 -1.828125,-0.04687 -0.125,0 -0.296875,0 -0.296875,0.328125 0,0.171875 0.15625,0.171875 0.375,0.171875 1,0 1.0625,0.171875 1.234375,0.59375 l 2.046875,4.78125 -3.734375,4 C 2.796875,-1.21875 2.046875,-0.5625 0.78125,-0.5 0.5625,-0.484375 0.4375,-0.484375 0.4375,-0.171875 0.4375,-0.125 0.453125,0 0.640625,0 0.875,0 1.140625,-0.03125 1.375,-0.03125 H 2.1875 C 2.734375,-0.03125 3.34375,0 3.875,0 4,0 4.203125,0 4.203125,-0.3125 4.203125,-0.484375 4.078125,-0.5 3.984375,-0.5 3.640625,-0.53125 3.40625,-0.71875 3.40625,-1 c 0,-0.296875 0.203125,-0.5 0.703125,-1.015625 L 5.640625,-3.6875 C 6.03125,-4.078125 6.9375,-5.078125 7.3125,-5.453125 L 9.125,-1.21875 C 9.140625,-1.1875 9.21875,-1.015625 9.21875,-1 c 0,0.15625 -0.390625,0.46875 -0.9375,0.5 -0.109375,0 -0.296875,0.015625 -0.296875,0.328125 C 7.984375,0 8.15625,0 8.25,0 8.546875,0 8.890625,-0.03125 9.171875,-0.03125 h 1.90625 C 11.375,-0.03125 11.703125,0 12,0 12.125,0 12.3125,0 12.3125,-0.328125 12.3125,-0.5 12.140625,-0.5 11.984375,-0.5 10.953125,-0.515625 10.921875,-0.609375 10.625,-1.234375 l -2.28125,-5.34375 2.1875,-2.34375 c 0.171875,-0.171875 0.578125,-0.59375 0.734375,-0.765625 0.734375,-0.78125 1.421875,-1.484375 2.8125,-1.578125 0.171875,-0.01563 0.34375,-0.01563 0.34375,-0.3125 0,-0.1875 -0.140625,-0.1875 -0.21875,-0.1875 -0.234375,0 -0.5,0.04687 -0.734375,0.04687 h -0.796875 c -0.546875,0 -1.15625,-0.04687 -1.6875,-0.04687 -0.125,0 -0.328125,0 -0.328125,0.3125 0,0.171875 0.125,0.1875 0.21875,0.1875 0.28125,0.03125 0.578125,0.171875 0.578125,0.5 l -0.01563,0.03125 c -0.01563,0.125 -0.0625,0.296875 -0.25,0.5 z m 0,0"
               id="path240" />
          </g>
        </g>
        <g
           clip-path="url(#clipPath3664)"
           clip-rule="nonzero"
           id="g125"
           style="stroke:#167581;stroke-opacity:0.92408299">
          <g
             style="fill:#000000;fill-opacity:1;stroke:#167581;stroke-opacity:0.92408299"
             id="g123">
            <g
               id="use117"
               transform="translate(110.967,17.868999)"
               style="stroke:#167581;stroke-opacity:0.92408299">
              <path
                 style="stroke:#167581;stroke-opacity:0.92408299"
                 d="m 4.65625,3.484375 c 0,-0.046875 0,-0.078125 -0.234375,-0.3125 -1.4375,-1.453125 -2.234375,-3.8125 -2.234375,-6.75 0,-2.78125 0.671875,-5.171875 2.328125,-6.859375 0.140625,-0.140625 0.140625,-0.15625 0.140625,-0.203125 0,-0.09375 -0.0625,-0.109375 -0.125,-0.109375 -0.1875,0 -1.359375,1.03125 -2.0625,2.4375 -0.734375,1.4375 -1.0625,2.984375 -1.0625,4.734375 0,1.28125 0.203125,2.984375 0.953125,4.53125 0.84375,1.71875 2.015625,2.640625 2.171875,2.640625 0.0625,0 0.125,-0.015625 0.125,-0.109375 z m 0,0"
                 id="path244" />
            </g>
            <g
               id="use119"
               transform="translate(116.43003,17.868999)"
               style="stroke:#167581;stroke-opacity:0.92408299">
              <path
                 style="stroke:#167581;stroke-opacity:0.92408299"
                 d="M 6.3125,-2.40625 H 6 c -0.046875,0.234375 -0.15625,1.03125 -0.3125,1.265625 -0.09375,0.125 -0.90625,0.125 -1.34375,0.125 H 1.6875 c 0.390625,-0.328125 1.265625,-1.25 1.640625,-1.59375 2.1875,-2.015625 2.984375,-2.75 2.984375,-4.171875 0,-1.65625 -1.3125,-2.75 -2.96875,-2.75 -1.671875,0 -2.640625,1.40625 -2.640625,2.640625 0,0.734375 0.625,0.734375 0.671875,0.734375 0.296875,0 0.671875,-0.21875 0.671875,-0.671875 C 2.046875,-7.234375 1.78125,-7.5 1.375,-7.5 1.25,-7.5 1.21875,-7.5 1.171875,-7.484375 1.453125,-8.46875 2.21875,-9.125 3.15625,-9.125 4.375,-9.125 5.125,-8.109375 5.125,-6.78125 5.125,-5.5625 4.421875,-4.5 3.59375,-3.578125 L 0.703125,-0.34375 V 0 H 5.9375 Z m 0,0"
                 id="path248" />
            </g>
            <g
               id="use121"
               transform="translate(123.45393,17.868999)"
               style="stroke:#167581;stroke-opacity:0.92408299">
              <path
                 style="stroke:#167581;stroke-opacity:0.92408299"
                 d="M 4.046875,-3.578125 C 4.046875,-4.65625 3.90625,-6.4375 3.09375,-8.109375 2.25,-9.828125 1.078125,-10.75 0.921875,-10.75 c -0.0625,0 -0.140625,0.01563 -0.140625,0.109375 0,0.04687 0,0.0625 0.25,0.3125 1.4375,1.453125 2.234375,3.8125 2.234375,6.75 0,2.78125 -0.671875,5.171875 -2.328125,6.859375 -0.15625,0.125 -0.15625,0.15625 -0.15625,0.203125 0,0.09375 0.078125,0.109375 0.140625,0.109375 0.1875,0 1.359375,-1.03125 2.0625,-2.4375 0.734375,-1.453125 1.0625,-3 1.0625,-4.734375 z m 0,0"
                 id="path252" />
            </g>
          </g>
        </g>
        <g
           style="fill:#000000;fill-opacity:1;stroke:#167581;stroke-opacity:0.92408299"
           id="g129">
          <g
             id="use127"
             transform="translate(134.196,13.04)"
             style="stroke:#167581;stroke-opacity:0.92408299">
            <path
               style="stroke:#167581;stroke-opacity:0.92408299"
               d="m 11.625,-10.234375 c 0.1875,-0.07813 0.328125,-0.171875 0.328125,-0.375 0,-0.1875 -0.140625,-0.34375 -0.34375,-0.34375 -0.09375,0 -0.25,0.07813 -0.3125,0.109375 L 1.78125,-6.359375 c -0.296875,0.140625 -0.359375,0.265625 -0.359375,0.40625 0,0.15625 0.109375,0.265625 0.359375,0.375 l 9.515625,4.46875 c 0.21875,0.125 0.25,0.125 0.3125,0.125 0.1875,0 0.34375,-0.15625 0.34375,-0.34375 0,-0.15625 -0.07813,-0.25 -0.359375,-0.390625 L 2.578125,-5.953125 Z m -0.28125,12.59375 c 0.296875,0 0.609375,0 0.609375,-0.34375 0,-0.34375 -0.359375,-0.34375 -0.625,-0.34375 h -9.28125 c -0.25,0 -0.625,0 -0.625,0.34375 0,0.34375 0.3125,0.34375 0.609375,0.34375 z m 0,0"
               id="path256" />
          </g>
        </g>
        <g
           style="fill:#000000;fill-opacity:1;stroke:#167581;stroke-opacity:0.92408299"
           id="g133">
          <g
             id="use131"
             transform="translate(152.368,13.04)"
             style="stroke:#167581;stroke-opacity:0.92408299">
            <path
               style="stroke:#167581;stroke-opacity:0.92408299"
               d="M 5.1875,-2.046875 C 5.09375,-1.75 5.09375,-1.71875 4.859375,-1.390625 c -0.375,0.484375 -1.140625,1.21875 -1.953125,1.21875 -0.703125,0 -1.09375,-0.640625 -1.09375,-1.65625 0,-0.9375 0.53125,-2.875 0.859375,-3.59375 C 3.25,-6.625 4.0625,-7.25 4.734375,-7.25 c 1.140625,0 1.359375,1.40625 1.359375,1.546875 0,0.015625 -0.046875,0.25 -0.0625,0.28125 z m 1.09375,-4.40625 C 6.09375,-6.90625 5.625,-7.59375 4.734375,-7.59375 c -1.9375,0 -4.046875,2.515625 -4.046875,5.0625 0,1.703125 1,2.703125 2.171875,2.703125 0.953125,0 1.75,-0.734375 2.234375,-1.3125 0.171875,1.015625 0.984375,1.3125 1.5,1.3125 0.515625,0 0.9375,-0.3125 1.234375,-0.921875 C 8.109375,-1.34375 8.34375,-2.390625 8.34375,-2.46875 8.34375,-2.546875 8.28125,-2.625 8.171875,-2.625 8.03125,-2.625 8,-2.53125 7.9375,-2.265625 7.671875,-1.25 7.359375,-0.171875 6.640625,-0.171875 c -0.5,0 -0.53125,-0.453125 -0.53125,-0.796875 0,-0.390625 0.0625,-0.578125 0.203125,-1.25 0.125,-0.4375 0.21875,-0.8125 0.34375,-1.3125 0.640625,-2.578125 0.796875,-3.203125 0.796875,-3.296875 0,-0.25 -0.1875,-0.4375 -0.4375,-0.4375 -0.5625,0 -0.703125,0.609375 -0.734375,0.8125 z m 0,0"
               id="path260" />
          </g>
        </g>
        <g
           style="fill:#000000;fill-opacity:1;stroke:#167581;stroke-opacity:0.92408299"
           id="g137">
          <g
             id="use135"
             transform="translate(161.217,16.355)"
             style="stroke:#167581;stroke-opacity:0.92408299">
            <path
               style="stroke:#167581;stroke-opacity:0.92408299"
               d="M 6.3125,-2.40625 H 6 c -0.046875,0.234375 -0.15625,1.03125 -0.3125,1.265625 -0.09375,0.125 -0.90625,0.125 -1.34375,0.125 H 1.6875 c 0.390625,-0.328125 1.265625,-1.25 1.640625,-1.59375 2.1875,-2.015625 2.984375,-2.75 2.984375,-4.171875 0,-1.65625 -1.3125,-2.75 -2.96875,-2.75 -1.671875,0 -2.640625,1.40625 -2.640625,2.640625 0,0.734375 0.625,0.734375 0.671875,0.734375 0.296875,0 0.671875,-0.21875 0.671875,-0.671875 C 2.046875,-7.234375 1.78125,-7.5 1.375,-7.5 1.25,-7.5 1.21875,-7.5 1.171875,-7.484375 1.453125,-8.46875 2.21875,-9.125 3.15625,-9.125 4.375,-9.125 5.125,-8.109375 5.125,-6.78125 5.125,-5.5625 4.421875,-4.5 3.59375,-3.578125 L 0.703125,-0.34375 V 0 H 5.9375 Z m 0,0"
               id="path264" />
          </g>
        </g>
        <g
           style="fill:#000000;fill-opacity:1;stroke:#167581;stroke-opacity:0.92408299"
           id="g141">
          <g
             id="use139"
             transform="translate(168.739,13.04)"
             style="stroke:#167581;stroke-opacity:0.92408299">
            <path
               style="stroke:#167581;stroke-opacity:0.92408299"
               d="m 3.359375,0.0625 c 0,-1 -0.328125,-1.734375 -1.03125,-1.734375 C 1.78125,-1.671875 1.5,-1.21875 1.5,-0.84375 1.5,-0.46875 1.75,0 2.34375,0 2.5625,0 2.75,-0.0625 2.90625,-0.21875 c 0.03125,-0.046875 0.0625,-0.046875 0.078125,-0.046875 0.03125,0 0.03125,0.25 0.03125,0.328125 0,0.578125 -0.109375,1.6875 -1.109375,2.8125 -0.1875,0.203125 -0.1875,0.234375 -0.1875,0.28125 0,0.078125 0.09375,0.171875 0.171875,0.171875 0.140625,0 1.46875,-1.28125 1.46875,-3.265625 z m 0,0"
               id="path268" />
          </g>
        </g>
        <g
           style="fill:#000000;fill-opacity:1;stroke:#167581;stroke-opacity:0.92408299"
           id="g145">
          <g
             id="use143"
             transform="translate(176.29655,13.04)"
             style="stroke:#167581;stroke-opacity:0.92408299">
            <path
               style="stroke:#167581;stroke-opacity:0.92408299"
               d="m 3.171875,-0.828125 c 0,-0.5 -0.421875,-0.84375 -0.828125,-0.84375 C 1.84375,-1.671875 1.5,-1.25 1.5,-0.84375 1.5,-0.34375 1.90625,0 2.328125,0 c 0.5,0 0.84375,-0.40625 0.84375,-0.828125 z m 0,0"
               id="path272" />
          </g>
        </g>
        <g
           style="fill:#000000;fill-opacity:1;stroke:#167581;stroke-opacity:0.92408299"
           id="g149">
          <g
             id="use147"
             transform="translate(183.8369,13.04)"
             style="stroke:#167581;stroke-opacity:0.92408299">
            <path
               style="stroke:#167581;stroke-opacity:0.92408299"
               d="m 3.171875,-0.828125 c 0,-0.5 -0.421875,-0.84375 -0.828125,-0.84375 C 1.84375,-1.671875 1.5,-1.25 1.5,-0.84375 1.5,-0.34375 1.90625,0 2.328125,0 c 0.5,0 0.84375,-0.40625 0.84375,-0.828125 z m 0,0"
               id="path276" />
          </g>
        </g>
        <g
           style="fill:#000000;fill-opacity:1;stroke:#167581;stroke-opacity:0.92408299"
           id="g153">
          <g
             id="use151"
             transform="translate(191.39447,13.04)"
             style="stroke:#167581;stroke-opacity:0.92408299">
            <path
               style="stroke:#167581;stroke-opacity:0.92408299"
               d="m 3.171875,-0.828125 c 0,-0.5 -0.421875,-0.84375 -0.828125,-0.84375 C 1.84375,-1.671875 1.5,-1.25 1.5,-0.84375 1.5,-0.34375 1.90625,0 2.328125,0 c 0.5,0 0.84375,-0.40625 0.84375,-0.828125 z m 0,0"
               id="path280" />
          </g>
        </g>
        <g
           style="fill:#000000;fill-opacity:1;stroke:#167581;stroke-opacity:0.92408299"
           id="g157">
          <g
             id="use155"
             transform="translate(198.95203,13.04)"
             style="stroke:#167581;stroke-opacity:0.92408299">
            <path
               style="stroke:#167581;stroke-opacity:0.92408299"
               d="m 3.359375,0.0625 c 0,-1 -0.328125,-1.734375 -1.03125,-1.734375 C 1.78125,-1.671875 1.5,-1.21875 1.5,-0.84375 1.5,-0.46875 1.75,0 2.34375,0 2.5625,0 2.75,-0.0625 2.90625,-0.21875 c 0.03125,-0.046875 0.0625,-0.046875 0.078125,-0.046875 0.03125,0 0.03125,0.25 0.03125,0.328125 0,0.578125 -0.109375,1.6875 -1.109375,2.8125 -0.1875,0.203125 -0.1875,0.234375 -0.1875,0.28125 0,0.078125 0.09375,0.171875 0.171875,0.171875 0.140625,0 1.46875,-1.28125 1.46875,-3.265625 z m 0,0"
               id="path284" />
          </g>
        </g>
        <g
           style="fill:#000000;fill-opacity:1;stroke:#167581;stroke-opacity:0.92408299"
           id="g161">
          <g
             id="use159"
             transform="translate(206.49237,13.04)"
             style="stroke:#167581;stroke-opacity:0.92408299">
            <path
               style="stroke:#167581;stroke-opacity:0.92408299"
               d="M 8.171875,-6.984375 6.5625,-10.765625 c 0.21875,-0.40625 0.734375,-0.484375 0.9375,-0.5 0.109375,0 0.296875,-0.01563 0.296875,-0.3125 0,-0.1875 -0.15625,-0.1875 -0.25,-0.1875 -0.296875,0 -0.640625,0.04687 -0.9375,0.04687 h -1 c -1.046875,0 -1.796875,-0.04687 -1.828125,-0.04687 -0.125,0 -0.296875,0 -0.296875,0.328125 0,0.171875 0.15625,0.171875 0.375,0.171875 1,0 1.0625,0.171875 1.234375,0.59375 l 2.046875,4.78125 -3.734375,4 C 2.796875,-1.21875 2.046875,-0.5625 0.78125,-0.5 0.5625,-0.484375 0.4375,-0.484375 0.4375,-0.171875 0.4375,-0.125 0.453125,0 0.640625,0 0.875,0 1.140625,-0.03125 1.375,-0.03125 H 2.1875 C 2.734375,-0.03125 3.34375,0 3.875,0 4,0 4.203125,0 4.203125,-0.3125 4.203125,-0.484375 4.078125,-0.5 3.984375,-0.5 3.640625,-0.53125 3.40625,-0.71875 3.40625,-1 c 0,-0.296875 0.203125,-0.5 0.703125,-1.015625 L 5.640625,-3.6875 C 6.03125,-4.078125 6.9375,-5.078125 7.3125,-5.453125 L 9.125,-1.21875 C 9.140625,-1.1875 9.21875,-1.015625 9.21875,-1 c 0,0.15625 -0.390625,0.46875 -0.9375,0.5 -0.109375,0 -0.296875,0.015625 -0.296875,0.328125 C 7.984375,0 8.15625,0 8.25,0 8.546875,0 8.890625,-0.03125 9.171875,-0.03125 h 1.90625 C 11.375,-0.03125 11.703125,0 12,0 12.125,0 12.3125,0 12.3125,-0.328125 12.3125,-0.5 12.140625,-0.5 11.984375,-0.5 10.953125,-0.515625 10.921875,-0.609375 10.625,-1.234375 l -2.28125,-5.34375 2.1875,-2.34375 c 0.171875,-0.171875 0.578125,-0.59375 0.734375,-0.765625 0.734375,-0.78125 1.421875,-1.484375 2.8125,-1.578125 0.171875,-0.01563 0.34375,-0.01563 0.34375,-0.3125 0,-0.1875 -0.140625,-0.1875 -0.21875,-0.1875 -0.234375,0 -0.5,0.04687 -0.734375,0.04687 h -0.796875 c -0.546875,0 -1.15625,-0.04687 -1.6875,-0.04687 -0.125,0 -0.328125,0 -0.328125,0.3125 0,0.171875 0.125,0.1875 0.21875,0.1875 0.28125,0.03125 0.578125,0.171875 0.578125,0.5 l -0.01563,0.03125 c -0.01563,0.125 -0.0625,0.296875 -0.25,0.5 z m 0,0"
               id="path288" />
          </g>
        </g>
        <g
           clip-path="url(#clipPath7771)"
           clip-rule="nonzero"
           id="g167"
           style="stroke:#167581;stroke-opacity:0.92408299">
          <g
             style="fill:#000000;fill-opacity:1;stroke:#167581;stroke-opacity:0.92408299"
             id="g165">
            <g
               id="use163"
               transform="translate(220.487,17.868999)"
               style="stroke:#167581;stroke-opacity:0.92408299">
              <path
                 style="stroke:#167581;stroke-opacity:0.92408299"
                 d="m 4.65625,3.484375 c 0,-0.046875 0,-0.078125 -0.234375,-0.3125 -1.4375,-1.453125 -2.234375,-3.8125 -2.234375,-6.75 0,-2.78125 0.671875,-5.171875 2.328125,-6.859375 0.140625,-0.140625 0.140625,-0.15625 0.140625,-0.203125 0,-0.09375 -0.0625,-0.109375 -0.125,-0.109375 -0.1875,0 -1.359375,1.03125 -2.0625,2.4375 -0.734375,1.4375 -1.0625,2.984375 -1.0625,4.734375 0,1.28125 0.203125,2.984375 0.953125,4.53125 0.84375,1.71875 2.015625,2.640625 2.171875,2.640625 0.0625,0 0.125,-0.015625 0.125,-0.109375 z m 0,0"
                 id="path292" />
            </g>
          </g>
        </g>
        <g
           style="fill:#000000;fill-opacity:1;stroke:#167581;stroke-opacity:0.92408299"
           id="g171">
          <g
             id="use169"
             transform="translate(225.94901,17.868999)"
             style="stroke:#167581;stroke-opacity:0.92408299">
            <path
               style="stroke:#167581;stroke-opacity:0.92408299"
               d="M 2.953125,-4.203125 C 2.984375,-4.28125 3.34375,-5 3.875,-5.46875 c 0.375,-0.34375 0.859375,-0.5625 1.421875,-0.5625 0.5625,0 0.765625,0.421875 0.765625,1 0,0.8125 -0.578125,2.453125 -0.875,3.21875 -0.125,0.34375 -0.203125,0.53125 -0.203125,0.796875 0,0.640625 0.453125,1.15625 1.140625,1.15625 1.328125,0 1.828125,-2.109375 1.828125,-2.1875 C 7.953125,-2.125 7.90625,-2.1875 7.8125,-2.1875 c -0.125,0 -0.140625,0.046875 -0.203125,0.296875 -0.34375,1.171875 -0.875,1.75 -1.4375,1.75 -0.140625,0 -0.375,-0.015625 -0.375,-0.46875 0,-0.359375 0.15625,-0.796875 0.234375,-1 C 6.328125,-2.390625 6.921875,-4 6.921875,-4.8125 c 0,-0.875 -0.5,-1.515625 -1.59375,-1.515625 -1.265625,0 -1.9375,0.90625 -2.203125,1.265625 C 3.078125,-5.875 2.5,-6.328125 1.859375,-6.328125 c -0.453125,0 -0.765625,0.28125 -1.015625,0.765625 -0.25,0.515625 -0.453125,1.375 -0.453125,1.4375 0,0.046875 0.046875,0.125 0.15625,0.125 0.109375,0 0.125,-0.015625 0.21875,-0.34375 0.21875,-0.875 0.484375,-1.6875 1.0625,-1.6875 0.328125,0 0.4375,0.21875 0.4375,0.65625 0,0.3125 -0.140625,0.875 -0.25,1.3125 L 1.625,-2.515625 c -0.0625,0.28125 -0.21875,0.921875 -0.296875,1.1875 -0.09375,0.359375 -0.25,1.046875 -0.25,1.109375 0,0.203125 0.15625,0.359375 0.375,0.359375 0.171875,0 0.375,-0.078125 0.484375,-0.296875 0.03125,-0.078125 0.15625,-0.578125 0.234375,-0.859375 l 0.3125,-1.296875 z m 0,0"
               id="path296" />
          </g>
        </g>
        <g
           clip-path="url(#clipPath1937)"
           clip-rule="nonzero"
           id="g177"
           style="stroke:#167581;stroke-opacity:0.92408299">
          <g
             style="fill:#000000;fill-opacity:1;stroke:#167581;stroke-opacity:0.92408299"
             id="g175">
            <g
               id="use173"
               transform="translate(234.33501,17.868999)"
               style="stroke:#167581;stroke-opacity:0.92408299">
              <path
                 style="stroke:#167581;stroke-opacity:0.92408299"
                 d="M 4.046875,-3.578125 C 4.046875,-4.65625 3.90625,-6.4375 3.09375,-8.109375 2.25,-9.828125 1.078125,-10.75 0.921875,-10.75 c -0.0625,0 -0.140625,0.01563 -0.140625,0.109375 0,0.04687 0,0.0625 0.25,0.3125 1.4375,1.453125 2.234375,3.8125 2.234375,6.75 0,2.78125 -0.671875,5.171875 -2.328125,6.859375 -0.15625,0.125 -0.15625,0.15625 -0.15625,0.203125 0,0.09375 0.078125,0.109375 0.140625,0.109375 0.1875,0 1.359375,-1.03125 2.0625,-2.4375 0.734375,-1.453125 1.0625,-3 1.0625,-4.734375 z m 0,0"
                 id="path300" />
            </g>
          </g>
        </g>
        <g
           style="fill:#000000;fill-opacity:1;stroke:#167581;stroke-opacity:0.92408299"
           id="g181">
          <g
             id="use179"
             transform="translate(245.077,13.04)"
             style="stroke:#167581;stroke-opacity:0.92408299">
            <path
               style="stroke:#167581;stroke-opacity:0.92408299"
               d="m 11.625,-10.234375 c 0.1875,-0.07813 0.328125,-0.171875 0.328125,-0.375 0,-0.1875 -0.140625,-0.34375 -0.34375,-0.34375 -0.09375,0 -0.25,0.07813 -0.3125,0.109375 L 1.78125,-6.359375 c -0.296875,0.140625 -0.359375,0.265625 -0.359375,0.40625 0,0.15625 0.109375,0.265625 0.359375,0.375 l 9.515625,4.46875 c 0.21875,0.125 0.25,0.125 0.3125,0.125 0.1875,0 0.34375,-0.15625 0.34375,-0.34375 0,-0.15625 -0.07813,-0.25 -0.359375,-0.390625 L 2.578125,-5.953125 Z m -0.28125,12.59375 c 0.296875,0 0.609375,0 0.609375,-0.34375 0,-0.34375 -0.359375,-0.34375 -0.625,-0.34375 h -9.28125 c -0.25,0 -0.625,0 -0.625,0.34375 0,0.34375 0.3125,0.34375 0.609375,0.34375 z m 0,0"
               id="path304" />
          </g>
        </g>
        <g
           style="fill:#000000;fill-opacity:1;stroke:#167581;stroke-opacity:0.92408299"
           id="g185">
          <g
             id="use183"
             transform="translate(263.24899,13.04)"
             style="stroke:#167581;stroke-opacity:0.92408299">
            <path
               style="stroke:#167581;stroke-opacity:0.92408299"
               d="M 5.1875,-2.046875 C 5.09375,-1.75 5.09375,-1.71875 4.859375,-1.390625 c -0.375,0.484375 -1.140625,1.21875 -1.953125,1.21875 -0.703125,0 -1.09375,-0.640625 -1.09375,-1.65625 0,-0.9375 0.53125,-2.875 0.859375,-3.59375 C 3.25,-6.625 4.0625,-7.25 4.734375,-7.25 c 1.140625,0 1.359375,1.40625 1.359375,1.546875 0,0.015625 -0.046875,0.25 -0.0625,0.28125 z m 1.09375,-4.40625 C 6.09375,-6.90625 5.625,-7.59375 4.734375,-7.59375 c -1.9375,0 -4.046875,2.515625 -4.046875,5.0625 0,1.703125 1,2.703125 2.171875,2.703125 0.953125,0 1.75,-0.734375 2.234375,-1.3125 0.171875,1.015625 0.984375,1.3125 1.5,1.3125 0.515625,0 0.9375,-0.3125 1.234375,-0.921875 C 8.109375,-1.34375 8.34375,-2.390625 8.34375,-2.46875 8.34375,-2.546875 8.28125,-2.625 8.171875,-2.625 8.03125,-2.625 8,-2.53125 7.9375,-2.265625 7.671875,-1.25 7.359375,-0.171875 6.640625,-0.171875 c -0.5,0 -0.53125,-0.453125 -0.53125,-0.796875 0,-0.390625 0.0625,-0.578125 0.203125,-1.25 0.125,-0.4375 0.21875,-0.8125 0.34375,-1.3125 0.640625,-2.578125 0.796875,-3.203125 0.796875,-3.296875 0,-0.25 -0.1875,-0.4375 -0.4375,-0.4375 -0.5625,0 -0.703125,0.609375 -0.734375,0.8125 z m 0,0"
               id="path308" />
          </g>
        </g>
        <g
           style="fill:#000000;fill-opacity:1;stroke:#167581;stroke-opacity:0.92408299"
           id="g189">
          <g
             id="use187"
             transform="translate(272.09799,15.622)"
             style="stroke:#167581;stroke-opacity:0.92408299">
            <path
               style="stroke:#167581;stroke-opacity:0.92408299"
               d="M 2.953125,-4.203125 C 2.984375,-4.28125 3.34375,-5 3.875,-5.46875 c 0.375,-0.34375 0.859375,-0.5625 1.421875,-0.5625 0.5625,0 0.765625,0.421875 0.765625,1 0,0.8125 -0.578125,2.453125 -0.875,3.21875 -0.125,0.34375 -0.203125,0.53125 -0.203125,0.796875 0,0.640625 0.453125,1.15625 1.140625,1.15625 1.328125,0 1.828125,-2.109375 1.828125,-2.1875 C 7.953125,-2.125 7.90625,-2.1875 7.8125,-2.1875 c -0.125,0 -0.140625,0.046875 -0.203125,0.296875 -0.34375,1.171875 -0.875,1.75 -1.4375,1.75 -0.140625,0 -0.375,-0.015625 -0.375,-0.46875 0,-0.359375 0.15625,-0.796875 0.234375,-1 C 6.328125,-2.390625 6.921875,-4 6.921875,-4.8125 c 0,-0.875 -0.5,-1.515625 -1.59375,-1.515625 -1.265625,0 -1.9375,0.90625 -2.203125,1.265625 C 3.078125,-5.875 2.5,-6.328125 1.859375,-6.328125 c -0.453125,0 -0.765625,0.28125 -1.015625,0.765625 -0.25,0.515625 -0.453125,1.375 -0.453125,1.4375 0,0.046875 0.046875,0.125 0.15625,0.125 0.109375,0 0.125,-0.015625 0.21875,-0.34375 0.21875,-0.875 0.484375,-1.6875 1.0625,-1.6875 0.328125,0 0.4375,0.21875 0.4375,0.65625 0,0.3125 -0.140625,0.875 -0.25,1.3125 L 1.625,-2.515625 c -0.0625,0.28125 -0.21875,0.921875 -0.296875,1.1875 -0.09375,0.359375 -0.25,1.046875 -0.25,1.109375 0,0.203125 0.15625,0.359375 0.375,0.359375 0.171875,0 0.375,-0.078125 0.484375,-0.296875 0.03125,-0.078125 0.15625,-0.578125 0.234375,-0.859375 l 0.3125,-1.296875 z m 0,0"
               id="path312" />
          </g>
        </g>
        <g
           style="fill:#000000;fill-opacity:1;stroke:#167581;stroke-opacity:0.92408299"
           id="g193">
          <g
             id="use191"
             transform="translate(280.98099,13.04)"
             style="stroke:#167581;stroke-opacity:0.92408299">
            <path
               style="stroke:#167581;stroke-opacity:0.92408299"
               d="m 4.53125,-4.28125 c 0,-1.25 -0.125,-3.34375 -1.15625,-5.5625 -0.828125,-1.796875 -2.234375,-3.046875 -2.4375,-3.046875 -0.0625,0 -0.125,0.01563 -0.125,0.09375 0,0.03125 0.015625,0.0625 0.03125,0.09375 0.828125,0.859375 2.921875,3.046875 2.921875,8.390625 0,5.375 -2.078125,7.5625 -2.921875,8.421875 C 0.828125,4.15625 0.8125,4.171875 0.8125,4.203125 0.8125,4.28125 0.875,4.3125 0.9375,4.3125 1.125,4.3125 2.578125,3.03125 3.421875,1.140625 4.28125,-0.78125 4.53125,-2.640625 4.53125,-4.28125 Z m 0,0"
               id="path316" />
          </g>
        </g>
      </g>
    </g>
  </g>
</svg>
